<svg width="332" height="207" viewBox="0 0 332 207" fill="none" xmlns="http://www.w3.org/2000/svg">
<rect y="158" width="160" height="49" rx="6" fill="#005BB9"/>
<path d="M56.1562 188V176.625H60.0547C61.3411 176.625 62.3203 176.883 62.9922 177.398C63.6641 177.914 64 178.682 64 179.703C64 180.224 63.8594 180.693 63.5781 181.109C63.2969 181.526 62.8854 181.849 62.3438 182.078C62.9583 182.245 63.4323 182.56 63.7656 183.023C64.1042 183.482 64.2734 184.034 64.2734 184.68C64.2734 185.747 63.9297 186.568 63.2422 187.141C62.5599 187.714 61.5807 188 60.3047 188H56.1562ZM58.1328 182.867V186.422H60.3281C60.9479 186.422 61.4323 186.268 61.7812 185.961C62.1302 185.654 62.3047 185.227 62.3047 184.68C62.3047 183.497 61.7005 182.893 60.4922 182.867H58.1328ZM58.1328 181.414H60.0703C60.6849 181.414 61.1641 181.276 61.5078 181C61.8568 180.719 62.0312 180.323 62.0312 179.812C62.0312 179.25 61.8698 178.844 61.5469 178.594C61.2292 178.344 60.7318 178.219 60.0547 178.219H58.1328V181.414ZM73.0547 184.656H72.0938V188H70.1953V179.547H72.0938V182.922H72.9297L75.2656 179.547H77.6094L74.5547 183.594L77.8672 188H75.3984L73.0547 184.656ZM78.1016 183.695C78.1016 182.867 78.2656 182.122 78.5938 181.461C78.9219 180.794 79.3828 180.284 79.9766 179.93C80.5703 179.57 81.2526 179.391 82.0234 179.391C83.1641 179.391 84.0885 179.758 84.7969 180.492C85.5104 181.227 85.8958 182.201 85.9531 183.414L85.9609 183.859C85.9609 184.693 85.7995 185.438 85.4766 186.094C85.1589 186.75 84.7005 187.258 84.1016 187.617C83.5078 187.977 82.8203 188.156 82.0391 188.156C80.8464 188.156 79.8906 187.76 79.1719 186.969C78.4583 186.172 78.1016 185.112 78.1016 183.789V183.695ZM80 183.859C80 184.729 80.1797 185.411 80.5391 185.906C80.8984 186.396 81.3984 186.641 82.0391 186.641C82.6797 186.641 83.1771 186.391 83.5312 185.891C83.8906 185.391 84.0703 184.659 84.0703 183.695C84.0703 182.841 83.8854 182.164 83.5156 181.664C83.151 181.164 82.6536 180.914 82.0234 180.914C81.4036 180.914 80.9115 181.161 80.5469 181.656C80.1823 182.146 80 182.88 80 183.859ZM94.9688 183.859C94.9688 185.167 94.6719 186.211 94.0781 186.992C93.4844 187.768 92.6875 188.156 91.6875 188.156C90.7604 188.156 90.0182 187.852 89.4609 187.242V191.25H87.5625V179.547H89.3125L89.3906 180.406C89.9479 179.729 90.7057 179.391 91.6641 179.391C92.6953 179.391 93.5026 179.776 94.0859 180.547C94.6745 181.312 94.9688 182.378 94.9688 183.742V183.859ZM93.0781 183.695C93.0781 182.852 92.9089 182.182 92.5703 181.688C92.237 181.193 91.7578 180.945 91.1328 180.945C90.3568 180.945 89.7995 181.266 89.4609 181.906V185.656C89.8047 186.312 90.3672 186.641 91.1484 186.641C91.7526 186.641 92.224 186.398 92.5625 185.914C92.9062 185.424 93.0781 184.685 93.0781 183.695ZM102.984 181.859C102.984 182.234 102.87 182.581 102.641 182.898C102.417 183.211 102.099 183.461 101.688 183.648C102.656 183.987 103.141 184.641 103.141 185.609C103.141 186.385 102.826 187.005 102.195 187.469C101.565 187.927 100.721 188.156 99.6641 188.156C99.0182 188.156 98.4297 188.049 97.8984 187.836C97.3672 187.617 96.9531 187.31 96.6562 186.914C96.3594 186.513 96.2109 186.039 96.2109 185.492H98.1016C98.1016 185.836 98.2552 186.125 98.5625 186.359C98.8698 186.589 99.2578 186.703 99.7266 186.703C100.19 186.703 100.557 186.596 100.828 186.383C101.104 186.164 101.242 185.88 101.242 185.531C101.242 185.12 101.122 184.823 100.883 184.641C100.643 184.458 100.273 184.367 99.7734 184.367H98.4141V183H99.8203C100.669 182.99 101.094 182.641 101.094 181.953C101.094 181.609 100.971 181.341 100.727 181.148C100.482 180.956 100.146 180.859 99.7188 180.859C99.3021 180.859 98.9505 180.964 98.6641 181.172C98.3776 181.375 98.2344 181.633 98.2344 181.945H96.3438C96.3438 181.201 96.6562 180.591 97.2812 180.117C97.9062 179.638 98.7005 179.398 99.6641 179.398C100.711 179.398 101.526 179.612 102.109 180.039C102.693 180.466 102.984 181.073 102.984 181.859ZM110.031 179.547H111.922V188H110.031V182.359L106.719 188H104.828V179.547H106.719V185.188L110.031 179.547ZM121.102 188H119.203V184.586H115.914V188H114.016V179.547H115.914V183.07H119.203V179.547H121.102V188ZM126.086 185.281L127.805 179.547H129.828L126.469 189.281C125.953 190.703 125.078 191.414 123.844 191.414C123.568 191.414 123.263 191.367 122.93 191.273V189.805L123.289 189.828C123.768 189.828 124.128 189.74 124.367 189.562C124.612 189.391 124.805 189.099 124.945 188.688L125.219 187.961L122.25 179.547H124.297L126.086 185.281Z" fill="white"/>
<g clip-path="url(#clip0_1:516)">
<path d="M36.4609 186.707C35.2773 186.707 34.3144 187.67 34.3144 188.854C34.3144 190.037 35.2773 191 36.4609 191C37.6444 191 38.6073 190.037 38.6073 188.854C38.6073 187.67 37.6444 186.707 36.4609 186.707ZM36.4609 189.712C35.9874 189.712 35.6023 189.327 35.6023 188.854C35.6023 188.38 35.9874 187.995 36.4609 187.995C36.9341 187.995 37.3194 188.38 37.3194 188.854C37.3194 189.327 36.9344 189.712 36.4609 189.712Z" fill="white"/>
<path d="M42.8145 186.707C41.6309 186.707 40.6681 187.67 40.6681 188.854C40.6681 190.037 41.6309 191 42.8145 191C43.9981 191 44.9609 190.037 44.9609 188.854C44.9609 187.67 43.9981 186.707 42.8145 186.707ZM42.8145 189.712C42.341 189.712 41.9559 189.327 41.9559 188.854C41.9559 188.38 42.341 187.995 42.8145 187.995C43.288 187.995 43.6731 188.38 43.6731 188.854C43.6731 189.327 43.288 189.712 42.8145 189.712Z" fill="white"/>
<path d="M46.538 178.193C46.4156 178.039 46.2302 177.95 46.034 177.95H34.7588L34.1735 174.991C34.1222 174.732 33.9179 174.531 33.6579 174.483L31.0822 174.011C30.7317 173.946 30.3969 174.178 30.3327 174.528C30.2685 174.878 30.5001 175.213 30.85 175.278L32.9951 175.671L34.8848 185.222C34.9445 185.524 35.2092 185.741 35.5165 185.741H44.5315C44.8314 185.741 45.0913 185.535 45.1589 185.242L46.6614 178.738C46.7056 178.547 46.6601 178.346 46.538 178.193ZM44.0194 184.453H36.0454L35.0136 179.238H45.2242L44.0194 184.453Z" fill="white"/>
</g>
<path d="M22.1309 24.668C21.873 27.3984 20.8652 29.5312 19.1074 31.0664C17.3496 32.5898 15.0117 33.3516 12.0938 33.3516C10.0547 33.3516 8.25586 32.8711 6.69727 31.9102C5.15039 30.9375 3.95508 29.5605 3.11133 27.7793C2.26758 25.998 1.82812 23.9297 1.79297 21.5742V19.1836C1.79297 16.7695 2.2207 14.6426 3.07617 12.8027C3.93164 10.9629 5.15625 9.54492 6.75 8.54883C8.35547 7.55273 10.207 7.05469 12.3047 7.05469C15.1289 7.05469 17.4023 7.82227 19.125 9.35742C20.8477 10.8926 21.8496 13.0605 22.1309 15.8613H17.7012C17.4902 14.0215 16.9512 12.6973 16.084 11.8887C15.2285 11.0684 13.9688 10.6582 12.3047 10.6582C10.3711 10.6582 8.88281 11.3672 7.83984 12.7852C6.80859 14.1914 6.28125 16.2598 6.25781 18.9902V21.2578C6.25781 24.0234 6.75 26.1328 7.73438 27.5859C8.73047 29.0391 10.1836 29.7656 12.0938 29.7656C13.8398 29.7656 15.1523 29.373 16.0312 28.5879C16.9102 27.8027 17.4668 26.4961 17.7012 24.668H22.1309ZM25.875 13.9805H30.1465V29.5898H37.5645V13.9805H41.8359V29.5898H44.4199L44.0684 38.6426H40.1836V33H25.875V13.9805ZM55.8105 33.3516C53.1035 33.3516 50.9062 32.502 49.2188 30.8027C47.543 29.0918 46.7051 26.8184 46.7051 23.9824V23.4551C46.7051 21.5566 47.0684 19.8633 47.7949 18.375C48.5332 16.875 49.5645 15.709 50.8887 14.877C52.2129 14.0449 53.6895 13.6289 55.3184 13.6289C57.9082 13.6289 59.9062 14.4551 61.3125 16.1074C62.7305 17.7598 63.4395 20.0977 63.4395 23.1211V24.8438H51.0117C51.1406 26.4141 51.6621 27.6562 52.5762 28.5703C53.502 29.4844 54.6621 29.9414 56.0566 29.9414C58.0137 29.9414 59.6074 29.1504 60.8379 27.5684L63.1406 29.7656C62.3789 30.9023 61.3594 31.7871 60.082 32.4199C58.8164 33.041 57.3926 33.3516 55.8105 33.3516ZM55.3008 17.0566C54.1289 17.0566 53.1797 17.4668 52.4531 18.2871C51.7383 19.1074 51.2812 20.25 51.082 21.7148H59.2207V21.3984C59.127 19.9688 58.7461 18.8906 58.0781 18.1641C57.4102 17.4258 56.4844 17.0566 55.3008 17.0566ZM82.8984 33H78.627V17.4258H71.209V33H66.9375V13.9805H82.8984V33ZM103.605 13.9805V33H99.334V17.4258H93.9551L93.6035 24.0527C93.3809 27.2402 92.7656 29.5312 91.7578 30.9258C90.7617 32.3086 89.2324 33 87.1699 33H85.8516L85.834 29.4492L86.7129 29.3613C87.6504 29.2324 88.3301 28.6641 88.752 27.6562C89.1855 26.6367 89.4609 24.7852 89.5781 22.1016L89.9297 13.9805H103.605ZM116.525 33.3516C113.818 33.3516 111.621 32.502 109.934 30.8027C108.258 29.0918 107.42 26.8184 107.42 23.9824V23.4551C107.42 21.5566 107.783 19.8633 108.51 18.375C109.248 16.875 110.279 15.709 111.604 14.877C112.928 14.0449 114.404 13.6289 116.033 13.6289C118.623 13.6289 120.621 14.4551 122.027 16.1074C123.445 17.7598 124.154 20.0977 124.154 23.1211V24.8438H111.727C111.855 26.4141 112.377 27.6562 113.291 28.5703C114.217 29.4844 115.377 29.9414 116.771 29.9414C118.729 29.9414 120.322 29.1504 121.553 27.5684L123.855 29.7656C123.094 30.9023 122.074 31.7871 120.797 32.4199C119.531 33.041 118.107 33.3516 116.525 33.3516ZM116.016 17.0566C114.844 17.0566 113.895 17.4668 113.168 18.2871C112.453 19.1074 111.996 20.25 111.797 21.7148H119.936V21.3984C119.842 19.9688 119.461 18.8906 118.793 18.1641C118.125 17.4258 117.199 17.0566 116.016 17.0566ZM143.596 33H139.324V25.3184H131.924V33H127.652V13.9805H131.924V21.9082H139.324V13.9805H143.596V33ZM160.031 13.9805H164.285V33H160.031V20.3086L152.578 33H148.324V13.9805H152.578V26.6719L160.031 13.9805ZM177.205 33.3516C174.498 33.3516 172.301 32.502 170.613 30.8027C168.938 29.0918 168.1 26.8184 168.1 23.9824V23.4551C168.1 21.5566 168.463 19.8633 169.189 18.375C169.928 16.875 170.959 15.709 172.283 14.877C173.607 14.0449 175.084 13.6289 176.713 13.6289C179.303 13.6289 181.301 14.4551 182.707 16.1074C184.125 17.7598 184.834 20.0977 184.834 23.1211V24.8438H172.406C172.535 26.4141 173.057 27.6562 173.971 28.5703C174.896 29.4844 176.057 29.9414 177.451 29.9414C179.408 29.9414 181.002 29.1504 182.232 27.5684L184.535 29.7656C183.773 30.9023 182.754 31.7871 181.477 32.4199C180.211 33.041 178.787 33.3516 177.205 33.3516ZM176.695 17.0566C175.523 17.0566 174.574 17.4668 173.848 18.2871C173.133 19.1074 172.676 20.25 172.477 21.7148H180.615V21.3984C180.521 19.9688 180.141 18.8906 179.473 18.1641C178.805 17.4258 177.879 17.0566 176.695 17.0566ZM197.455 33V13.9805H205.172C207.773 13.9805 209.754 14.4375 211.113 15.3516C212.473 16.2539 213.152 17.5547 213.152 19.2539C213.152 20.1328 212.877 20.9238 212.326 21.627C211.787 22.3184 210.984 22.8516 209.918 23.2266C211.16 23.4844 212.145 24.0059 212.871 24.791C213.598 25.5762 213.961 26.502 213.961 27.5684C213.961 29.3379 213.305 30.6855 211.992 31.6113C210.691 32.5371 208.816 33 206.367 33H197.455ZM201.727 24.8965V29.625H206.402C208.594 29.625 209.689 28.8398 209.689 27.2695C209.689 25.6875 208.576 24.8965 206.35 24.8965H201.727ZM201.727 21.8379H205.242C207.668 21.8379 208.881 21.123 208.881 19.6934C208.881 18.1934 207.732 17.4199 205.436 17.373H201.727V21.8379ZM234.439 29.9414C235.506 29.9414 236.391 29.6309 237.094 29.0098C237.797 28.3887 238.172 27.6211 238.219 26.707H242.244C242.197 27.8906 241.828 28.998 241.137 30.0293C240.445 31.0488 239.508 31.8574 238.324 32.4551C237.141 33.0527 235.863 33.3516 234.492 33.3516C231.832 33.3516 229.723 32.4902 228.164 30.7676C226.605 29.0449 225.826 26.666 225.826 23.6309V23.1914C225.826 20.2969 226.6 17.9824 228.146 16.248C229.693 14.502 231.803 13.6289 234.475 13.6289C236.736 13.6289 238.576 14.291 239.994 15.6152C241.424 16.9277 242.174 18.6562 242.244 20.8008H238.219C238.172 19.7109 237.797 18.8145 237.094 18.1113C236.402 17.4082 235.518 17.0566 234.439 17.0566C233.057 17.0566 231.99 17.5605 231.24 18.5684C230.49 19.5645 230.109 21.082 230.098 23.1211V23.8066C230.098 25.8691 230.467 27.4102 231.205 28.4297C231.955 29.4375 233.033 29.9414 234.439 29.9414ZM254.426 15.0352C256.816 15.0352 258.732 15.8379 260.174 17.4434C261.615 19.0371 262.336 21.2051 262.336 23.9473V24.1582C262.336 26.9004 261.551 29.1211 259.98 30.8203C258.422 32.5195 256.301 33.3691 253.617 33.3691C251.004 33.3691 248.895 32.502 247.289 30.7676C245.684 29.0332 244.881 26.666 244.881 23.666V22.4355C244.881 18.334 245.607 15.0879 247.061 12.6973C248.514 10.3066 250.682 8.8125 253.564 8.21484C255.182 7.88672 256.225 7.54102 256.693 7.17773C257.174 6.80273 257.414 6.29883 257.414 5.66602H260.859C260.859 6.84961 260.666 7.81055 260.279 8.54883C259.893 9.28711 259.301 9.89062 258.504 10.3594C257.707 10.8164 256.336 11.25 254.391 11.6602C252.609 12.0352 251.25 12.7031 250.312 13.6641C249.387 14.625 248.766 15.9551 248.449 17.6543C250.148 15.9082 252.141 15.0352 254.426 15.0352ZM253.582 18.4629C252.199 18.4629 251.115 18.9316 250.33 19.8691C249.545 20.7949 249.152 22.2246 249.152 24.1582C249.152 25.9863 249.539 27.4102 250.312 28.4297C251.086 29.4492 252.188 29.959 253.617 29.959C255.035 29.959 256.131 29.4492 256.904 28.4297C257.689 27.3984 258.082 25.8516 258.082 23.7891C258.082 22.1484 257.689 20.8535 256.904 19.9043C256.131 18.9434 255.023 18.4629 253.582 18.4629ZM264.885 23.3145C264.885 21.4512 265.254 19.7754 265.992 18.2871C266.73 16.7871 267.768 15.6387 269.104 14.8418C270.439 14.0332 271.975 13.6289 273.709 13.6289C276.275 13.6289 278.355 14.4551 279.949 16.1074C281.555 17.7598 282.422 19.9512 282.551 22.6816L282.568 23.6836C282.568 25.5586 282.205 27.2344 281.479 28.7109C280.764 30.1875 279.732 31.3301 278.385 32.1387C277.049 32.9473 275.502 33.3516 273.744 33.3516C271.061 33.3516 268.91 32.4609 267.293 30.6797C265.688 28.8867 264.885 26.502 264.885 23.5254V23.3145ZM269.156 23.6836C269.156 25.6406 269.561 27.1758 270.369 28.2891C271.178 29.3906 272.303 29.9414 273.744 29.9414C275.186 29.9414 276.305 29.3789 277.102 28.2539C277.91 27.1289 278.314 25.4824 278.314 23.3145C278.314 21.3926 277.898 19.8691 277.066 18.7441C276.246 17.6191 275.127 17.0566 273.709 17.0566C272.314 17.0566 271.207 17.6133 270.387 18.7266C269.566 19.8281 269.156 21.4805 269.156 23.6836ZM302.836 23.6836C302.836 26.625 302.168 28.9746 300.832 30.7324C299.496 32.4785 297.703 33.3516 295.453 33.3516C293.367 33.3516 291.697 32.666 290.443 31.2949V40.3125H286.172V13.9805H290.109L290.285 15.9141C291.539 14.3906 293.244 13.6289 295.4 13.6289C297.721 13.6289 299.537 14.4961 300.85 16.2305C302.174 17.9531 302.836 20.3496 302.836 23.4199V23.6836ZM298.582 23.3145C298.582 21.416 298.201 19.9102 297.439 18.7969C296.689 17.6836 295.611 17.127 294.205 17.127C292.459 17.127 291.205 17.8477 290.443 19.2891V27.7266C291.217 29.2031 292.482 29.9414 294.24 29.9414C295.6 29.9414 296.66 29.3965 297.422 28.3066C298.195 27.2051 298.582 25.541 298.582 23.3145ZM314.842 33.3516C312.135 33.3516 309.938 32.502 308.25 30.8027C306.574 29.0918 305.736 26.8184 305.736 23.9824V23.4551C305.736 21.5566 306.1 19.8633 306.826 18.375C307.564 16.875 308.596 15.709 309.92 14.877C311.244 14.0449 312.721 13.6289 314.35 13.6289C316.939 13.6289 318.938 14.4551 320.344 16.1074C321.762 17.7598 322.471 20.0977 322.471 23.1211V24.8438H310.043C310.172 26.4141 310.693 27.6562 311.607 28.5703C312.533 29.4844 313.693 29.9414 315.088 29.9414C317.045 29.9414 318.639 29.1504 319.869 27.5684L322.172 29.7656C321.41 30.9023 320.391 31.7871 319.113 32.4199C317.848 33.041 316.424 33.3516 314.842 33.3516ZM314.332 17.0566C313.16 17.0566 312.211 17.4668 311.484 18.2871C310.77 19.1074 310.312 20.25 310.113 21.7148H318.252V21.3984C318.158 19.9688 317.777 18.8906 317.109 18.1641C316.441 17.4258 315.516 17.0566 314.332 17.0566Z" fill="#0A1A2C"/>
<path d="M10.0977 63.9355C10.0977 66.0514 9.73633 67.6237 9.01367 68.6523C8.29102 69.681 7.16146 70.1953 5.625 70.1953C4.10807 70.1953 2.98503 69.694 2.25586 68.6914C1.52669 67.6823 1.14909 66.1784 1.12305 64.1797V61.7676C1.12305 59.6777 1.48438 58.125 2.20703 57.1094C2.92969 56.0938 4.0625 55.5859 5.60547 55.5859C7.13542 55.5859 8.26172 56.0775 8.98438 57.0605C9.70703 58.0371 10.0781 59.5475 10.0977 61.5918V63.9355ZM8.29102 61.4648C8.29102 59.9349 8.07617 58.8216 7.64648 58.125C7.2168 57.4219 6.53646 57.0703 5.60547 57.0703C4.68099 57.0703 4.00716 57.4186 3.58398 58.1152C3.16081 58.8118 2.94271 59.8828 2.92969 61.3281V64.2188C2.92969 65.7552 3.15104 66.8913 3.59375 67.627C4.04297 68.3561 4.72005 68.7207 5.625 68.7207C6.51693 68.7207 7.17773 68.3757 7.60742 67.6855C8.04362 66.9954 8.27148 65.9082 8.29102 64.4238V61.4648ZM20.7324 66.2891H14.7754L13.4375 70H11.5039L16.9336 55.7812H18.5742L24.0137 70H22.0898L20.7324 66.2891ZM15.3418 64.7461H20.1758L17.7539 58.0957L15.3418 64.7461ZM28.3496 55.7812L32.998 67.3828L37.6465 55.7812H40.0781V70H38.2031V64.4629L38.3789 58.4863L33.7109 70H32.2754L27.6172 58.5156L27.8027 64.4629V70H25.9277V55.7812H28.3496ZM53.8477 65.4883C53.6719 66.9922 53.1152 68.1543 52.1777 68.9746C51.2467 69.7884 50.0065 70.1953 48.457 70.1953C46.7773 70.1953 45.4297 69.5931 44.4141 68.3887C43.4049 67.1842 42.9004 65.5729 42.9004 63.5547V62.1875C42.9004 60.8659 43.1348 59.7038 43.6035 58.7012C44.0788 57.6986 44.7493 56.9303 45.6152 56.3965C46.4811 55.8561 47.4837 55.5859 48.623 55.5859C50.1335 55.5859 51.3444 56.0091 52.2559 56.8555C53.1673 57.6953 53.6979 58.8607 53.8477 60.3516H51.9629C51.8001 59.2188 51.4453 58.3984 50.8984 57.8906C50.3581 57.3828 49.5996 57.1289 48.623 57.1289C47.4251 57.1289 46.4844 57.5716 45.8008 58.457C45.1237 59.3424 44.7852 60.6022 44.7852 62.2363V63.6133C44.7852 65.1562 45.1074 66.3835 45.752 67.2949C46.3965 68.2064 47.2982 68.6621 48.457 68.6621C49.4987 68.6621 50.2962 68.4277 50.8496 67.959C51.4095 67.4837 51.7806 66.6602 51.9629 65.4883H53.8477ZM58.3008 68.4668H65.0391V70H56.416V55.7812H58.3008V68.4668ZM76.6602 55.7812V65.4492C76.6536 66.7904 76.2305 67.8874 75.3906 68.7402C74.5573 69.5931 73.4245 70.0716 71.9922 70.1758L71.4941 70.1953C69.9382 70.1953 68.6979 69.7754 67.7734 68.9355C66.849 68.0957 66.3802 66.9401 66.3672 65.4688V55.7812H68.2227V65.4102C68.2227 66.4388 68.5059 67.2396 69.0723 67.8125C69.6387 68.3789 70.446 68.6621 71.4941 68.6621C72.5553 68.6621 73.3659 68.3789 73.9258 67.8125C74.4922 67.2461 74.7754 66.4486 74.7754 65.4199V55.7812H76.6602ZM89.4434 57.3242H84.873V70H83.0078V57.3242H78.4473V55.7812H89.4434V57.3242ZM101.738 65.4883C101.562 66.9922 101.006 68.1543 100.068 68.9746C99.1374 69.7884 97.8971 70.1953 96.3477 70.1953C94.668 70.1953 93.3203 69.5931 92.3047 68.3887C91.2956 67.1842 90.791 65.5729 90.791 63.5547V62.1875C90.791 60.8659 91.0254 59.7038 91.4941 58.7012C91.9694 57.6986 92.64 56.9303 93.5059 56.3965C94.3717 55.8561 95.3743 55.5859 96.5137 55.5859C98.0241 55.5859 99.235 56.0091 100.146 56.8555C101.058 57.6953 101.589 58.8607 101.738 60.3516H99.8535C99.6908 59.2188 99.3359 58.3984 98.7891 57.8906C98.2487 57.3828 97.4902 57.1289 96.5137 57.1289C95.3158 57.1289 94.375 57.5716 93.6914 58.457C93.0143 59.3424 92.6758 60.6022 92.6758 62.2363V63.6133C92.6758 65.1562 92.998 66.3835 93.6426 67.2949C94.2871 68.2064 95.1888 68.6621 96.3477 68.6621C97.3893 68.6621 98.1868 68.4277 98.7402 67.959C99.3001 67.4837 99.6712 66.6602 99.8535 65.4883H101.738ZM115.234 70H113.35V63.4277H106.182V70H104.307V55.7812H106.182V61.8945H113.35V55.7812H115.234V70Z" fill="#717171"/>
<path d="M0 71.9531H116.914V72.9297H0V71.9531Z" fill="#717171"/>
<path d="M222.831 134H220.833V120.755L216.826 122.227V120.422L222.52 118.284H222.831V134ZM238.139 122.441C238.139 123.222 237.931 123.917 237.516 124.525C237.107 125.134 236.552 125.61 235.851 125.954C236.667 126.305 237.312 126.817 237.784 127.49C238.264 128.163 238.504 128.926 238.504 129.778C238.504 131.132 238.046 132.21 237.129 133.012C236.219 133.814 235.02 134.215 233.53 134.215C232.026 134.215 230.82 133.814 229.91 133.012C229.008 132.202 228.557 131.125 228.557 129.778C228.557 128.933 228.786 128.171 229.244 127.49C229.71 126.81 230.351 126.294 231.167 125.943C230.472 125.6 229.924 125.123 229.523 124.515C229.122 123.906 228.922 123.215 228.922 122.441C228.922 121.124 229.344 120.078 230.189 119.305C231.035 118.531 232.148 118.145 233.53 118.145C234.905 118.145 236.015 118.531 236.86 119.305C237.713 120.078 238.139 121.124 238.139 122.441ZM236.517 129.735C236.517 128.862 236.237 128.149 235.679 127.598C235.127 127.046 234.404 126.771 233.509 126.771C232.614 126.771 231.894 127.043 231.35 127.587C230.812 128.131 230.544 128.847 230.544 129.735C230.544 130.623 230.805 131.322 231.328 131.83C231.858 132.339 232.592 132.593 233.53 132.593C234.461 132.593 235.192 132.339 235.722 131.83C236.252 131.314 236.517 130.616 236.517 129.735ZM233.53 119.777C232.75 119.777 232.116 120.021 231.629 120.508C231.149 120.988 230.909 121.643 230.909 122.474C230.909 123.269 231.146 123.913 231.618 124.407C232.098 124.894 232.735 125.138 233.53 125.138C234.325 125.138 234.959 124.894 235.432 124.407C235.911 123.913 236.151 123.269 236.151 122.474C236.151 121.679 235.904 121.031 235.41 120.529C234.916 120.028 234.289 119.777 233.53 119.777ZM247.377 126.158L248.172 118.359H256.186V120.196H249.858L249.386 124.461C250.152 124.01 251.022 123.784 251.996 123.784C253.421 123.784 254.553 124.257 255.391 125.202C256.229 126.14 256.647 127.411 256.647 129.016C256.647 130.627 256.211 131.898 255.337 132.829C254.47 133.753 253.257 134.215 251.695 134.215C250.313 134.215 249.185 133.832 248.312 133.065C247.438 132.299 246.94 131.239 246.818 129.886H248.698C248.82 130.781 249.139 131.458 249.654 131.916C250.17 132.367 250.85 132.593 251.695 132.593C252.619 132.593 253.342 132.278 253.865 131.647C254.395 131.017 254.66 130.147 254.66 129.037C254.66 127.992 254.374 127.154 253.801 126.523C253.235 125.886 252.479 125.567 251.534 125.567C250.668 125.567 249.987 125.757 249.493 126.137L248.967 126.566L247.377 126.158ZM259.73 126.158L260.525 118.359H268.539V120.196H262.212L261.739 124.461C262.506 124.01 263.376 123.784 264.35 123.784C265.775 123.784 266.906 124.257 267.744 125.202C268.582 126.14 269.001 127.411 269.001 129.016C269.001 130.627 268.564 131.898 267.69 132.829C266.824 133.753 265.61 134.215 264.049 134.215C262.667 134.215 261.539 133.832 260.665 133.065C259.791 132.299 259.294 131.239 259.172 129.886H261.052C261.174 130.781 261.492 131.458 262.008 131.916C262.523 132.367 263.204 132.593 264.049 132.593C264.973 132.593 265.696 132.278 266.219 131.647C266.749 131.017 267.014 130.147 267.014 129.037C267.014 127.992 266.727 127.154 266.154 126.523C265.589 125.886 264.833 125.567 263.888 125.567C263.021 125.567 262.341 125.757 261.847 126.137L261.32 126.566L259.73 126.158ZM280.979 127.329C280.979 129.657 280.581 131.386 279.786 132.518C278.991 133.649 277.749 134.215 276.059 134.215C274.39 134.215 273.155 133.663 272.353 132.561C271.55 131.451 271.135 129.796 271.106 127.598V124.944C271.106 122.646 271.504 120.938 272.299 119.82C273.094 118.703 274.34 118.145 276.037 118.145C277.72 118.145 278.959 118.685 279.754 119.767C280.549 120.841 280.957 122.502 280.979 124.751V127.329ZM278.991 124.611C278.991 122.928 278.755 121.704 278.282 120.938C277.81 120.164 277.061 119.777 276.037 119.777C275.02 119.777 274.279 120.16 273.813 120.927C273.348 121.693 273.108 122.871 273.094 124.461V127.641C273.094 129.331 273.337 130.58 273.824 131.39C274.318 132.192 275.063 132.593 276.059 132.593C277.04 132.593 277.767 132.213 278.239 131.454C278.719 130.695 278.97 129.499 278.991 127.866V124.611ZM283.664 137.115L282.536 136.342C283.209 135.404 283.56 134.437 283.589 133.441V131.647H285.533V133.205C285.533 133.928 285.354 134.652 284.996 135.375C284.645 136.098 284.201 136.678 283.664 137.115ZM295.459 127.125C295.044 127.619 294.546 128.017 293.966 128.317C293.393 128.618 292.763 128.769 292.075 128.769C291.173 128.769 290.385 128.547 289.712 128.103C289.046 127.659 288.53 127.035 288.165 126.233C287.8 125.424 287.617 124.533 287.617 123.559C287.617 122.513 287.814 121.571 288.208 120.733C288.609 119.896 289.175 119.255 289.905 118.811C290.636 118.367 291.488 118.145 292.462 118.145C294.009 118.145 295.226 118.725 296.114 119.885C297.009 121.038 297.457 122.613 297.457 124.611V125.191C297.457 128.235 296.855 130.459 295.652 131.862C294.449 133.259 292.634 133.975 290.206 134.011H289.819V132.335H290.238C291.878 132.306 293.139 131.88 294.02 131.057C294.9 130.226 295.38 128.915 295.459 127.125ZM292.397 127.125C293.063 127.125 293.676 126.921 294.234 126.513C294.8 126.104 295.212 125.6 295.47 124.998V124.203C295.47 122.9 295.187 121.84 294.621 121.023C294.055 120.207 293.339 119.799 292.473 119.799C291.599 119.799 290.897 120.135 290.367 120.809C289.837 121.475 289.572 122.355 289.572 123.451C289.572 124.518 289.826 125.399 290.335 126.094C290.851 126.781 291.538 127.125 292.397 127.125ZM307.812 127.125C307.397 127.619 306.899 128.017 306.319 128.317C305.746 128.618 305.116 128.769 304.429 128.769C303.526 128.769 302.739 128.547 302.065 128.103C301.399 127.659 300.884 127.035 300.519 126.233C300.153 125.424 299.971 124.533 299.971 123.559C299.971 122.513 300.168 121.571 300.562 120.733C300.963 119.896 301.528 119.255 302.259 118.811C302.989 118.367 303.841 118.145 304.815 118.145C306.362 118.145 307.58 118.725 308.468 119.885C309.363 121.038 309.811 122.613 309.811 124.611V125.191C309.811 128.235 309.209 130.459 308.006 131.862C306.803 133.259 304.987 133.975 302.56 134.011H302.173V132.335H302.592C304.232 132.306 305.492 131.88 306.373 131.057C307.254 130.226 307.734 128.915 307.812 127.125ZM304.751 127.125C305.417 127.125 306.029 126.921 306.588 126.513C307.154 126.104 307.565 125.6 307.823 124.998V124.203C307.823 122.9 307.54 121.84 306.975 121.023C306.409 120.207 305.693 119.799 304.826 119.799C303.952 119.799 303.251 120.135 302.721 120.809C302.191 121.475 301.926 122.355 301.926 123.451C301.926 124.518 302.18 125.399 302.688 126.094C303.204 126.781 303.892 127.125 304.751 127.125ZM324.914 131.046H321.315V134H319.264V131.046H317.04V129.349H319.264V127.877H317.04V126.19H319.264V118.359H325.032C326.708 118.359 328.036 118.785 329.018 119.638C329.999 120.49 330.489 121.643 330.489 123.097C330.489 124.622 330.017 125.8 329.071 126.631C328.133 127.454 326.798 127.87 325.064 127.877H321.315V129.349H324.914V131.046ZM321.315 126.19H325.032C326.142 126.19 326.987 125.929 327.567 125.406C328.147 124.883 328.438 124.121 328.438 123.118C328.438 122.209 328.137 121.475 327.535 120.916C326.934 120.35 326.121 120.064 325.097 120.057H321.315V126.19Z" fill="#C2C5DA"/>
<path d="M215 128.5H311.25V129.596H215V128.5Z" fill="#C2C5DA"/>
<path d="M13.8569 134H9.48486V112.88L3.03516 115.084V111.381L13.2969 107.605H13.8569V134ZM37.8491 124.624H41.1191V128.146H37.8491V134H33.459V128.146H22.0952L21.9688 125.473L33.3145 107.695H37.8491V124.624ZM26.5757 124.624H33.459V113.639L33.1338 114.217L26.5757 124.624ZM68.0923 124.624H71.3623V128.146H68.0923V134H63.7021V128.146H52.3384L52.2119 125.473L63.5576 107.695H68.0923V124.624ZM56.8188 124.624H63.7021V113.639L63.377 114.217L56.8188 124.624ZM86.7188 122.998C85.2493 124.551 83.533 125.328 81.5698 125.328C79.2573 125.328 77.4146 124.521 76.0415 122.907C74.6685 121.281 73.9819 119.149 73.9819 116.512C73.9819 114.777 74.3312 113.206 75.0298 111.796C75.7284 110.387 76.722 109.291 78.0107 108.508C79.2995 107.725 80.793 107.334 82.4912 107.334C85.141 107.334 87.2427 108.322 88.7964 110.297C90.3501 112.272 91.127 114.916 91.127 118.228V119.457C91.127 124.202 90.055 127.821 87.9111 130.314C85.7673 132.808 82.5695 134.072 78.3179 134.108H77.7939V130.477H78.4263C81.0158 130.441 83.0031 129.821 84.3882 128.616C85.7733 127.4 86.5501 125.527 86.7188 122.998ZM82.4912 121.896C83.3704 121.896 84.1955 121.643 84.9663 121.137C85.7371 120.631 86.3333 119.932 86.7549 119.041V117.325C86.7549 115.386 86.3574 113.826 85.5625 112.646C84.7676 111.465 83.7378 110.875 82.4731 110.875C81.2085 110.875 80.1968 111.399 79.438 112.447C78.6912 113.483 78.3179 114.795 78.3179 116.385C78.3179 118.035 78.6973 119.366 79.4561 120.378C80.2148 121.39 81.2266 121.896 82.4912 121.896ZM107.748 122.998C106.279 124.551 104.562 125.328 102.599 125.328C100.287 125.328 98.4438 124.521 97.0708 122.907C95.6978 121.281 95.0112 119.149 95.0112 116.512C95.0112 114.777 95.3605 113.206 96.0591 111.796C96.7576 110.387 97.7513 109.291 99.04 108.508C100.329 107.725 101.822 107.334 103.521 107.334C106.17 107.334 108.272 108.322 109.826 110.297C111.379 112.272 112.156 114.916 112.156 118.228V119.457C112.156 124.202 111.084 127.821 108.94 130.314C106.797 132.808 103.599 134.072 99.3472 134.108H98.8232V130.477H99.4556C102.045 130.441 104.032 129.821 105.417 128.616C106.803 127.4 107.579 125.527 107.748 122.998ZM103.521 121.896C104.4 121.896 105.225 121.643 105.996 121.137C106.766 120.631 107.363 119.932 107.784 119.041V117.325C107.784 115.386 107.387 113.826 106.592 112.646C105.797 111.465 104.767 110.875 103.502 110.875C102.238 110.875 101.226 111.399 100.467 112.447C99.7205 113.483 99.3472 114.795 99.3472 116.385C99.3472 118.035 99.7266 119.366 100.485 120.378C101.244 121.39 102.256 121.896 103.521 121.896ZM117.233 139.926L114.866 138.517C115.565 137.421 116.041 136.463 116.293 135.644C116.558 134.837 116.697 134.012 116.709 133.169V129.754H120.666L120.647 132.916C120.635 134.193 120.31 135.469 119.672 136.746C119.046 138.035 118.233 139.095 117.233 139.926ZM136.907 122.998C135.438 124.551 133.722 125.328 131.758 125.328C129.446 125.328 127.603 124.521 126.23 122.907C124.857 121.281 124.17 119.149 124.17 116.512C124.17 114.777 124.52 113.206 125.218 111.796C125.917 110.387 126.91 109.291 128.199 108.508C129.488 107.725 130.981 107.334 132.68 107.334C135.329 107.334 137.431 108.322 138.985 110.297C140.539 112.272 141.315 114.916 141.315 118.228V119.457C141.315 124.202 140.243 127.821 138.1 130.314C135.956 132.808 132.758 134.072 128.506 134.108H127.982V130.477H128.615C131.204 130.441 133.192 129.821 134.577 128.616C135.962 127.4 136.739 125.527 136.907 122.998ZM132.68 121.896C133.559 121.896 134.384 121.643 135.155 121.137C135.926 120.631 136.522 119.932 136.943 119.041V117.325C136.943 115.386 136.546 113.826 135.751 112.646C134.956 111.465 133.926 110.875 132.662 110.875C131.397 110.875 130.385 111.399 129.626 112.447C128.88 113.483 128.506 114.795 128.506 116.385C128.506 118.035 128.886 119.366 129.645 120.378C130.403 121.39 131.415 121.896 132.68 121.896ZM157.937 122.998C156.467 124.551 154.751 125.328 152.788 125.328C150.475 125.328 148.632 124.521 147.259 122.907C145.886 121.281 145.2 119.149 145.2 116.512C145.2 114.777 145.549 113.206 146.248 111.796C146.946 110.387 147.94 109.291 149.229 108.508C150.517 107.725 152.011 107.334 153.709 107.334C156.359 107.334 158.46 108.322 160.014 110.297C161.568 112.272 162.345 114.916 162.345 118.228V119.457C162.345 124.202 161.273 127.821 159.129 130.314C156.985 132.808 153.787 134.072 149.536 134.108H149.012V130.477H149.644C152.234 130.441 154.221 129.821 155.606 128.616C156.991 127.4 157.768 125.527 157.937 122.998ZM153.709 121.896C154.588 121.896 155.413 121.643 156.184 121.137C156.955 120.631 157.551 119.932 157.973 119.041V117.325C157.973 115.386 157.575 113.826 156.78 112.646C155.985 111.465 154.956 110.875 153.691 110.875C152.426 110.875 151.415 111.399 150.656 112.447C149.909 113.483 149.536 114.795 149.536 116.385C149.536 118.035 149.915 119.366 150.674 120.378C151.433 121.39 152.444 121.896 153.709 121.896ZM188.559 129.827H182.742V134H178.189V129.827H174.485V126.159H178.189V124.226H174.485V120.559H178.189V107.695H188.252C191.155 107.695 193.473 108.454 195.208 109.972C196.942 111.477 197.809 113.483 197.809 115.988C197.809 118.541 196.984 120.547 195.334 122.004C193.684 123.449 191.389 124.19 188.451 124.226H182.742V126.159H188.559V129.827ZM182.742 120.559H188.18C189.818 120.559 191.07 120.179 191.938 119.42C192.805 118.662 193.238 117.529 193.238 116.024C193.238 114.675 192.811 113.573 191.956 112.718C191.112 111.863 189.944 111.417 188.451 111.381H182.742V120.559Z" fill="#005BB9"/>
<defs>
<clipPath id="clip0_1:516">
<rect width="17" height="17" fill="white" transform="translate(30 174)"/>
</clipPath>
</defs>
</svg>
